<mxfile host="app.diagrams.net" modified="2022-08-18T16:27:27.080Z" agent="5.0 (Windows NT 10.0; Win64; x64) AppleWebKit/537.36 (KHTML, like Gecko) Chrome/104.0.0.0 Safari/537.36" etag="YlMB1I8geHxuIvQfzJ0W" version="20.2.4" type="github">
  <diagram id="nKLjVvk67tKDoisFrhwJ" name="Page-1">
    <mxGraphModel dx="1422" dy="762" grid="1" gridSize="10" guides="1" tooltips="1" connect="1" arrows="1" fold="1" page="1" pageScale="1" pageWidth="827" pageHeight="1169" math="0" shadow="0">
      <root>
        <mxCell id="0" />
        <mxCell id="1" parent="0" />
        <mxCell id="d-9DvimB6q5o7fu3-Ovl-3" value="" style="edgeStyle=orthogonalEdgeStyle;rounded=0;orthogonalLoop=1;jettySize=auto;html=1;" edge="1" parent="1" source="d-9DvimB6q5o7fu3-Ovl-1" target="d-9DvimB6q5o7fu3-Ovl-2">
          <mxGeometry relative="1" as="geometry" />
        </mxCell>
        <mxCell id="d-9DvimB6q5o7fu3-Ovl-1" value="Message received" style="ellipse;whiteSpace=wrap;html=1;aspect=fixed;fillColor=#d5e8d4;strokeColor=#82b366;" vertex="1" parent="1">
          <mxGeometry x="240" y="120" width="80" height="80" as="geometry" />
        </mxCell>
        <mxCell id="d-9DvimB6q5o7fu3-Ovl-5" value="" style="edgeStyle=orthogonalEdgeStyle;rounded=0;orthogonalLoop=1;jettySize=auto;html=1;" edge="1" parent="1" source="d-9DvimB6q5o7fu3-Ovl-2" target="d-9DvimB6q5o7fu3-Ovl-4">
          <mxGeometry relative="1" as="geometry" />
        </mxCell>
        <mxCell id="d-9DvimB6q5o7fu3-Ovl-2" value="Validate message against schema" style="whiteSpace=wrap;html=1;fillColor=#d5e8d4;strokeColor=#82b366;" vertex="1" parent="1">
          <mxGeometry x="220" y="240" width="120" height="60" as="geometry" />
        </mxCell>
        <mxCell id="d-9DvimB6q5o7fu3-Ovl-7" value="No" style="edgeStyle=orthogonalEdgeStyle;rounded=0;orthogonalLoop=1;jettySize=auto;html=1;" edge="1" parent="1" source="d-9DvimB6q5o7fu3-Ovl-4" target="d-9DvimB6q5o7fu3-Ovl-6">
          <mxGeometry relative="1" as="geometry" />
        </mxCell>
        <mxCell id="d-9DvimB6q5o7fu3-Ovl-9" value="Yes" style="edgeStyle=orthogonalEdgeStyle;rounded=0;orthogonalLoop=1;jettySize=auto;html=1;" edge="1" parent="1" source="d-9DvimB6q5o7fu3-Ovl-4" target="d-9DvimB6q5o7fu3-Ovl-8">
          <mxGeometry relative="1" as="geometry" />
        </mxCell>
        <mxCell id="d-9DvimB6q5o7fu3-Ovl-4" value="Is valid?" style="rhombus;whiteSpace=wrap;html=1;fillColor=#d5e8d4;strokeColor=#82b366;" vertex="1" parent="1">
          <mxGeometry x="240" y="340" width="80" height="80" as="geometry" />
        </mxCell>
        <mxCell id="d-9DvimB6q5o7fu3-Ovl-6" value="Dead letter" style="ellipse;whiteSpace=wrap;html=1;aspect=fixed;fillColor=#d5e8d4;strokeColor=#82b366;" vertex="1" parent="1">
          <mxGeometry x="400" y="340" width="80" height="80" as="geometry" />
        </mxCell>
        <mxCell id="d-9DvimB6q5o7fu3-Ovl-11" value="" style="edgeStyle=orthogonalEdgeStyle;rounded=0;orthogonalLoop=1;jettySize=auto;html=1;" edge="1" parent="1" source="d-9DvimB6q5o7fu3-Ovl-8" target="d-9DvimB6q5o7fu3-Ovl-10">
          <mxGeometry relative="1" as="geometry" />
        </mxCell>
        <mxCell id="d-9DvimB6q5o7fu3-Ovl-8" value="Check statement exists in blob storage" style="whiteSpace=wrap;html=1;fillColor=#d5e8d4;strokeColor=#82b366;" vertex="1" parent="1">
          <mxGeometry x="220" y="468" width="120" height="60" as="geometry" />
        </mxCell>
        <mxCell id="d-9DvimB6q5o7fu3-Ovl-13" value="No" style="edgeStyle=orthogonalEdgeStyle;rounded=0;orthogonalLoop=1;jettySize=auto;html=1;" edge="1" parent="1" source="d-9DvimB6q5o7fu3-Ovl-10" target="d-9DvimB6q5o7fu3-Ovl-12">
          <mxGeometry relative="1" as="geometry" />
        </mxCell>
        <mxCell id="d-9DvimB6q5o7fu3-Ovl-15" value="Yes" style="edgeStyle=orthogonalEdgeStyle;rounded=0;orthogonalLoop=1;jettySize=auto;html=1;" edge="1" parent="1" source="d-9DvimB6q5o7fu3-Ovl-10" target="d-9DvimB6q5o7fu3-Ovl-14">
          <mxGeometry relative="1" as="geometry" />
        </mxCell>
        <mxCell id="d-9DvimB6q5o7fu3-Ovl-10" value="Statement exists?" style="rhombus;whiteSpace=wrap;html=1;fillColor=#d5e8d4;strokeColor=#82b366;" vertex="1" parent="1">
          <mxGeometry x="240" y="568" width="80" height="80" as="geometry" />
        </mxCell>
        <mxCell id="d-9DvimB6q5o7fu3-Ovl-12" value="Error" style="ellipse;whiteSpace=wrap;html=1;aspect=fixed;fillColor=#d5e8d4;strokeColor=#82b366;" vertex="1" parent="1">
          <mxGeometry x="400" y="568" width="80" height="80" as="geometry" />
        </mxCell>
        <mxCell id="d-9DvimB6q5o7fu3-Ovl-17" value="" style="edgeStyle=orthogonalEdgeStyle;rounded=0;orthogonalLoop=1;jettySize=auto;html=1;" edge="1" parent="1" source="d-9DvimB6q5o7fu3-Ovl-14" target="d-9DvimB6q5o7fu3-Ovl-16">
          <mxGeometry relative="1" as="geometry" />
        </mxCell>
        <mxCell id="d-9DvimB6q5o7fu3-Ovl-14" value="Build email request" style="whiteSpace=wrap;html=1;fillColor=#d5e8d4;strokeColor=#82b366;" vertex="1" parent="1">
          <mxGeometry x="220" y="696" width="120" height="60" as="geometry" />
        </mxCell>
        <mxCell id="d-9DvimB6q5o7fu3-Ovl-19" value="" style="edgeStyle=orthogonalEdgeStyle;rounded=0;orthogonalLoop=1;jettySize=auto;html=1;" edge="1" parent="1" source="d-9DvimB6q5o7fu3-Ovl-16" target="d-9DvimB6q5o7fu3-Ovl-18">
          <mxGeometry relative="1" as="geometry" />
        </mxCell>
        <mxCell id="d-9DvimB6q5o7fu3-Ovl-16" value="Send email request with GOV.UK Notify" style="whiteSpace=wrap;html=1;fillColor=#d5e8d4;strokeColor=#82b366;" vertex="1" parent="1">
          <mxGeometry x="220" y="800" width="120" height="60" as="geometry" />
        </mxCell>
        <mxCell id="d-9DvimB6q5o7fu3-Ovl-22" style="edgeStyle=orthogonalEdgeStyle;rounded=0;orthogonalLoop=1;jettySize=auto;html=1;" edge="1" parent="1" source="d-9DvimB6q5o7fu3-Ovl-18" target="d-9DvimB6q5o7fu3-Ovl-21">
          <mxGeometry relative="1" as="geometry" />
        </mxCell>
        <mxCell id="d-9DvimB6q5o7fu3-Ovl-18" value="Save email request with GOV.UK Notify reference and timestamp" style="whiteSpace=wrap;html=1;fillColor=#d5e8d4;strokeColor=#82b366;" vertex="1" parent="1">
          <mxGeometry x="220" y="900" width="120" height="60" as="geometry" />
        </mxCell>
        <mxCell id="d-9DvimB6q5o7fu3-Ovl-20" value="" style="shape=cylinder3;whiteSpace=wrap;html=1;boundedLbl=1;backgroundOutline=1;size=9;fillColor=#fff2cc;strokeColor=#d6b656;" vertex="1" parent="1">
          <mxGeometry x="180" y="910" width="30" height="40" as="geometry" />
        </mxCell>
        <mxCell id="d-9DvimB6q5o7fu3-Ovl-21" value="Message Completed" style="ellipse;whiteSpace=wrap;html=1;aspect=fixed;fillColor=#d5e8d4;strokeColor=#82b366;" vertex="1" parent="1">
          <mxGeometry x="240" y="1000" width="80" height="80" as="geometry" />
        </mxCell>
        <mxCell id="d-9DvimB6q5o7fu3-Ovl-23" value="" style="edgeStyle=orthogonalEdgeStyle;rounded=0;orthogonalLoop=1;jettySize=auto;html=1;" edge="1" parent="1" source="d-9DvimB6q5o7fu3-Ovl-24" target="d-9DvimB6q5o7fu3-Ovl-26">
          <mxGeometry relative="1" as="geometry" />
        </mxCell>
        <mxCell id="d-9DvimB6q5o7fu3-Ovl-24" value="Timer" style="ellipse;whiteSpace=wrap;html=1;aspect=fixed;fillColor=#d5e8d4;strokeColor=#82b366;" vertex="1" parent="1">
          <mxGeometry x="650" y="128" width="80" height="80" as="geometry" />
        </mxCell>
        <mxCell id="d-9DvimB6q5o7fu3-Ovl-25" value="" style="edgeStyle=orthogonalEdgeStyle;rounded=0;orthogonalLoop=1;jettySize=auto;html=1;" edge="1" parent="1" source="d-9DvimB6q5o7fu3-Ovl-26" target="d-9DvimB6q5o7fu3-Ovl-29">
          <mxGeometry relative="1" as="geometry" />
        </mxCell>
        <mxCell id="d-9DvimB6q5o7fu3-Ovl-26" value="Get all requests that have not been delivered" style="whiteSpace=wrap;html=1;fillColor=#d5e8d4;strokeColor=#82b366;" vertex="1" parent="1">
          <mxGeometry x="630" y="248" width="120" height="60" as="geometry" />
        </mxCell>
        <mxCell id="d-9DvimB6q5o7fu3-Ovl-27" value="No" style="edgeStyle=orthogonalEdgeStyle;rounded=0;orthogonalLoop=1;jettySize=auto;html=1;" edge="1" parent="1" source="d-9DvimB6q5o7fu3-Ovl-29" target="d-9DvimB6q5o7fu3-Ovl-30">
          <mxGeometry relative="1" as="geometry" />
        </mxCell>
        <mxCell id="d-9DvimB6q5o7fu3-Ovl-28" value="Yes" style="edgeStyle=orthogonalEdgeStyle;rounded=0;orthogonalLoop=1;jettySize=auto;html=1;" edge="1" parent="1" source="d-9DvimB6q5o7fu3-Ovl-29" target="d-9DvimB6q5o7fu3-Ovl-32">
          <mxGeometry relative="1" as="geometry" />
        </mxCell>
        <mxCell id="d-9DvimB6q5o7fu3-Ovl-29" value="any outstanding?" style="rhombus;whiteSpace=wrap;html=1;fontSize=9;fillColor=#d5e8d4;strokeColor=#82b366;" vertex="1" parent="1">
          <mxGeometry x="650" y="348" width="80" height="80" as="geometry" />
        </mxCell>
        <mxCell id="d-9DvimB6q5o7fu3-Ovl-30" value="Schedule next timer" style="ellipse;whiteSpace=wrap;html=1;aspect=fixed;fontSize=11;fillColor=#d5e8d4;strokeColor=#82b366;" vertex="1" parent="1">
          <mxGeometry x="810" y="348" width="80" height="80" as="geometry" />
        </mxCell>
        <mxCell id="d-9DvimB6q5o7fu3-Ovl-31" value="" style="edgeStyle=orthogonalEdgeStyle;rounded=0;orthogonalLoop=1;jettySize=auto;html=1;entryX=0.5;entryY=0;entryDx=0;entryDy=0;" edge="1" parent="1" source="d-9DvimB6q5o7fu3-Ovl-32" target="d-9DvimB6q5o7fu3-Ovl-38">
          <mxGeometry relative="1" as="geometry">
            <mxPoint x="690" y="576" as="targetPoint" />
          </mxGeometry>
        </mxCell>
        <mxCell id="d-9DvimB6q5o7fu3-Ovl-32" value="Check GOV.UK Notify status" style="whiteSpace=wrap;html=1;fillColor=#d5e8d4;strokeColor=#82b366;" vertex="1" parent="1">
          <mxGeometry x="630" y="476" width="120" height="60" as="geometry" />
        </mxCell>
        <mxCell id="d-9DvimB6q5o7fu3-Ovl-47" value="" style="edgeStyle=orthogonalEdgeStyle;rounded=0;orthogonalLoop=1;jettySize=auto;html=1;fontSize=9;" edge="1" parent="1" source="d-9DvimB6q5o7fu3-Ovl-38" target="d-9DvimB6q5o7fu3-Ovl-46">
          <mxGeometry relative="1" as="geometry" />
        </mxCell>
        <mxCell id="d-9DvimB6q5o7fu3-Ovl-38" value="Update delivery status" style="whiteSpace=wrap;html=1;fillColor=#d5e8d4;strokeColor=#82b366;" vertex="1" parent="1">
          <mxGeometry x="630" y="578" width="120" height="60" as="geometry" />
        </mxCell>
        <mxCell id="d-9DvimB6q5o7fu3-Ovl-45" value="" style="shape=cylinder3;whiteSpace=wrap;html=1;boundedLbl=1;backgroundOutline=1;size=9;fillColor=#fff2cc;strokeColor=#d6b656;" vertex="1" parent="1">
          <mxGeometry x="590" y="260" width="30" height="40" as="geometry" />
        </mxCell>
        <mxCell id="d-9DvimB6q5o7fu3-Ovl-49" value="No" style="edgeStyle=orthogonalEdgeStyle;rounded=0;orthogonalLoop=1;jettySize=auto;html=1;fontSize=9;" edge="1" parent="1" source="d-9DvimB6q5o7fu3-Ovl-46" target="d-9DvimB6q5o7fu3-Ovl-48">
          <mxGeometry relative="1" as="geometry" />
        </mxCell>
        <mxCell id="d-9DvimB6q5o7fu3-Ovl-52" value="Yes" style="edgeStyle=orthogonalEdgeStyle;rounded=0;orthogonalLoop=1;jettySize=auto;html=1;fontSize=9;" edge="1" parent="1" source="d-9DvimB6q5o7fu3-Ovl-46">
          <mxGeometry relative="1" as="geometry">
            <mxPoint x="690" y="800" as="targetPoint" />
          </mxGeometry>
        </mxCell>
        <mxCell id="d-9DvimB6q5o7fu3-Ovl-46" value="any exceeded maximum&lt;br&gt;&amp;nbsp;wait time?" style="rhombus;whiteSpace=wrap;html=1;fontSize=9;fillColor=#d5e8d4;strokeColor=#82b366;" vertex="1" parent="1">
          <mxGeometry x="650" y="676" width="80" height="80" as="geometry" />
        </mxCell>
        <mxCell id="d-9DvimB6q5o7fu3-Ovl-48" value="Schedule next timer" style="ellipse;whiteSpace=wrap;html=1;aspect=fixed;fontSize=11;fillColor=#d5e8d4;strokeColor=#82b366;" vertex="1" parent="1">
          <mxGeometry x="810" y="676" width="80" height="80" as="geometry" />
        </mxCell>
        <mxCell id="d-9DvimB6q5o7fu3-Ovl-50" value="" style="shape=cylinder3;whiteSpace=wrap;html=1;boundedLbl=1;backgroundOutline=1;size=9;fillColor=#fff2cc;strokeColor=#d6b656;" vertex="1" parent="1">
          <mxGeometry x="590" y="588" width="30" height="40" as="geometry" />
        </mxCell>
        <mxCell id="d-9DvimB6q5o7fu3-Ovl-55" value="Yes" style="edgeStyle=orthogonalEdgeStyle;rounded=0;orthogonalLoop=1;jettySize=auto;html=1;fontSize=11;" edge="1" parent="1" source="d-9DvimB6q5o7fu3-Ovl-53" target="d-9DvimB6q5o7fu3-Ovl-54">
          <mxGeometry relative="1" as="geometry" />
        </mxCell>
        <mxCell id="d-9DvimB6q5o7fu3-Ovl-57" value="No" style="edgeStyle=orthogonalEdgeStyle;rounded=0;orthogonalLoop=1;jettySize=auto;html=1;fontSize=12;" edge="1" parent="1" source="d-9DvimB6q5o7fu3-Ovl-53" target="d-9DvimB6q5o7fu3-Ovl-56">
          <mxGeometry relative="1" as="geometry" />
        </mxCell>
        <mxCell id="d-9DvimB6q5o7fu3-Ovl-53" value="any emails?" style="rhombus;whiteSpace=wrap;html=1;fontSize=12;fillColor=#d5e8d4;strokeColor=#82b366;" vertex="1" parent="1">
          <mxGeometry x="650" y="800" width="80" height="80" as="geometry" />
        </mxCell>
        <mxCell id="d-9DvimB6q5o7fu3-Ovl-58" style="edgeStyle=orthogonalEdgeStyle;rounded=0;orthogonalLoop=1;jettySize=auto;html=1;entryX=1;entryY=0.5;entryDx=0;entryDy=0;fontSize=12;" edge="1" parent="1" source="d-9DvimB6q5o7fu3-Ovl-54" target="d-9DvimB6q5o7fu3-Ovl-56">
          <mxGeometry relative="1" as="geometry">
            <Array as="points">
              <mxPoint x="850" y="970" />
            </Array>
          </mxGeometry>
        </mxCell>
        <mxCell id="d-9DvimB6q5o7fu3-Ovl-95" style="edgeStyle=orthogonalEdgeStyle;rounded=0;orthogonalLoop=1;jettySize=auto;html=1;entryX=0;entryY=0.5;entryDx=0;entryDy=0;fontSize=12;" edge="1" parent="1" source="d-9DvimB6q5o7fu3-Ovl-54" target="d-9DvimB6q5o7fu3-Ovl-88">
          <mxGeometry relative="1" as="geometry" />
        </mxCell>
        <mxCell id="d-9DvimB6q5o7fu3-Ovl-54" value="Complete email" style="whiteSpace=wrap;html=1;fontSize=12;fillColor=#d5e8d4;strokeColor=#82b366;" vertex="1" parent="1">
          <mxGeometry x="790" y="810" width="120" height="60" as="geometry" />
        </mxCell>
        <mxCell id="d-9DvimB6q5o7fu3-Ovl-60" value="No" style="edgeStyle=orthogonalEdgeStyle;rounded=0;orthogonalLoop=1;jettySize=auto;html=1;entryX=0.5;entryY=0;entryDx=0;entryDy=0;fontSize=12;" edge="1" parent="1" source="d-9DvimB6q5o7fu3-Ovl-56" target="d-9DvimB6q5o7fu3-Ovl-59">
          <mxGeometry relative="1" as="geometry" />
        </mxCell>
        <mxCell id="d-9DvimB6q5o7fu3-Ovl-62" value="Yes" style="edgeStyle=orthogonalEdgeStyle;rounded=0;orthogonalLoop=1;jettySize=auto;html=1;fontSize=12;" edge="1" parent="1" source="d-9DvimB6q5o7fu3-Ovl-56" target="d-9DvimB6q5o7fu3-Ovl-61">
          <mxGeometry relative="1" as="geometry" />
        </mxCell>
        <mxCell id="d-9DvimB6q5o7fu3-Ovl-56" value="any letters?" style="rhombus;whiteSpace=wrap;html=1;fontSize=12;fillColor=#f8cecc;strokeColor=#b85450;" vertex="1" parent="1">
          <mxGeometry x="650" y="930" width="80" height="80" as="geometry" />
        </mxCell>
        <mxCell id="d-9DvimB6q5o7fu3-Ovl-59" value="Schedule next timer" style="ellipse;whiteSpace=wrap;html=1;aspect=fixed;fontSize=11;fillColor=#d5e8d4;strokeColor=#82b366;" vertex="1" parent="1">
          <mxGeometry x="650" y="1060" width="80" height="80" as="geometry" />
        </mxCell>
        <mxCell id="d-9DvimB6q5o7fu3-Ovl-63" style="edgeStyle=orthogonalEdgeStyle;rounded=0;orthogonalLoop=1;jettySize=auto;html=1;entryX=0;entryY=0.5;entryDx=0;entryDy=0;fontSize=12;" edge="1" parent="1" source="d-9DvimB6q5o7fu3-Ovl-61" target="d-9DvimB6q5o7fu3-Ovl-59">
          <mxGeometry relative="1" as="geometry">
            <Array as="points">
              <mxPoint x="530" y="1100" />
            </Array>
          </mxGeometry>
        </mxCell>
        <mxCell id="d-9DvimB6q5o7fu3-Ovl-61" value="Raise error event and mark request completed" style="whiteSpace=wrap;html=1;fillColor=#f8cecc;strokeColor=#b85450;" vertex="1" parent="1">
          <mxGeometry x="470" y="940" width="120" height="60" as="geometry" />
        </mxCell>
        <mxCell id="d-9DvimB6q5o7fu3-Ovl-86" value="" style="shape=cylinder3;whiteSpace=wrap;html=1;boundedLbl=1;backgroundOutline=1;size=9;fillColor=#fff2cc;strokeColor=#d6b656;" vertex="1" parent="1">
          <mxGeometry x="870" y="880" width="30" height="40" as="geometry" />
        </mxCell>
        <mxCell id="d-9DvimB6q5o7fu3-Ovl-87" value="" style="edgeStyle=orthogonalEdgeStyle;rounded=0;orthogonalLoop=1;jettySize=auto;html=1;" edge="1" parent="1" source="d-9DvimB6q5o7fu3-Ovl-88" target="d-9DvimB6q5o7fu3-Ovl-90">
          <mxGeometry relative="1" as="geometry" />
        </mxCell>
        <mxCell id="d-9DvimB6q5o7fu3-Ovl-88" value="Build letter request" style="whiteSpace=wrap;html=1;fillColor=#f8cecc;strokeColor=#b85450;" vertex="1" parent="1">
          <mxGeometry x="970" y="810" width="120" height="60" as="geometry" />
        </mxCell>
        <mxCell id="d-9DvimB6q5o7fu3-Ovl-89" value="" style="edgeStyle=orthogonalEdgeStyle;rounded=0;orthogonalLoop=1;jettySize=auto;html=1;" edge="1" parent="1" source="d-9DvimB6q5o7fu3-Ovl-90" target="d-9DvimB6q5o7fu3-Ovl-92">
          <mxGeometry relative="1" as="geometry" />
        </mxCell>
        <mxCell id="d-9DvimB6q5o7fu3-Ovl-90" value="Send letter request with GOV.UK Notify" style="whiteSpace=wrap;html=1;fillColor=#f8cecc;strokeColor=#b85450;" vertex="1" parent="1">
          <mxGeometry x="970" y="914" width="120" height="60" as="geometry" />
        </mxCell>
        <mxCell id="d-9DvimB6q5o7fu3-Ovl-96" style="edgeStyle=orthogonalEdgeStyle;rounded=0;orthogonalLoop=1;jettySize=auto;html=1;entryX=1;entryY=0.5;entryDx=0;entryDy=0;fontSize=12;exitX=0.5;exitY=1;exitDx=0;exitDy=0;" edge="1" parent="1" source="d-9DvimB6q5o7fu3-Ovl-92" target="d-9DvimB6q5o7fu3-Ovl-59">
          <mxGeometry relative="1" as="geometry" />
        </mxCell>
        <mxCell id="d-9DvimB6q5o7fu3-Ovl-92" value="Save letter request with GOV.UK Notify reference and timestamp" style="whiteSpace=wrap;html=1;fillColor=#f8cecc;strokeColor=#b85450;" vertex="1" parent="1">
          <mxGeometry x="970" y="1014" width="120" height="60" as="geometry" />
        </mxCell>
        <mxCell id="d-9DvimB6q5o7fu3-Ovl-93" value="" style="shape=cylinder3;whiteSpace=wrap;html=1;boundedLbl=1;backgroundOutline=1;size=9;fillColor=#fff2cc;strokeColor=#d6b656;" vertex="1" parent="1">
          <mxGeometry x="930" y="1024" width="30" height="40" as="geometry" />
        </mxCell>
        <mxCell id="d-9DvimB6q5o7fu3-Ovl-98" value="Confirmed MVP" style="rounded=1;whiteSpace=wrap;html=1;fontSize=11;fillColor=#d5e8d4;strokeColor=#82b366;" vertex="1" parent="1">
          <mxGeometry x="930" y="148" width="120" height="32" as="geometry" />
        </mxCell>
        <mxCell id="d-9DvimB6q5o7fu3-Ovl-99" value="Unconfirmed MVP" style="rounded=1;whiteSpace=wrap;html=1;fontSize=11;fillColor=#f8cecc;strokeColor=#b85450;" vertex="1" parent="1">
          <mxGeometry x="930" y="200" width="120" height="32" as="geometry" />
        </mxCell>
        <mxCell id="d-9DvimB6q5o7fu3-Ovl-100" value="Database interaction" style="rounded=1;whiteSpace=wrap;html=1;fontSize=11;fillColor=#fff2cc;strokeColor=#d6b656;" vertex="1" parent="1">
          <mxGeometry x="930" y="254" width="120" height="32" as="geometry" />
        </mxCell>
      </root>
    </mxGraphModel>
  </diagram>
</mxfile>
